<svg width="58" height="58" viewBox="0 0 58 58" fill="none" xmlns="http://www.w3.org/2000/svg">
<path d="M42.1793 31.9C44.3535 31.9 46.2668 30.711 47.2524 28.913L57.6306 10.092C58.7032 8.178 57.3117 5.8 55.1085 5.8H12.2045L9.47948 0H0V5.8H5.79785L16.234 27.811L12.3204 34.887C10.2042 38.773 12.9872 43.5 17.3935 43.5H52.1806V37.7H17.3935L20.5824 31.9H42.1793ZM14.9584 11.6H50.1804L42.1793 26.1H21.8289L14.9584 11.6ZM17.3935 46.4C14.2047 46.4 11.6247 49.01 11.6247 52.2C11.6247 55.39 14.2047 58 17.3935 58C20.5824 58 23.1914 55.39 23.1914 52.2C23.1914 49.01 20.5824 46.4 17.3935 46.4ZM46.3828 46.4C43.194 46.4 40.6139 49.01 40.6139 52.2C40.6139 55.39 43.194 58 46.3828 58C49.5716 58 52.1806 55.39 52.1806 52.2C52.1806 49.01 49.5716 46.4 46.3828 46.4Z" fill="black"/>
</svg>
